<svg width="796" height="806" viewBox="0 0 796 806" fill="none" xmlns="http://www.w3.org/2000/svg">
<g clip-path="url(#clip0_37_5725)">
<rect width="83.4554" height="83.4554" transform="matrix(0.866025 0.5 -0.866025 0.5 73.2751 -69.9995)" stroke="#65B6D6"/>
<rect width="83.4554" height="41.7277" transform="matrix(0.866025 0.5 0 1 1.00046 -28.272)" stroke="#65B6D6"/>
<rect width="83.4554" height="41.7277" transform="matrix(0.866025 -0.5 0 1 73.2751 13.4561)" stroke="#65B6D6"/>
<rect width="83.4554" height="83.4554" transform="matrix(0.866025 0.5 -0.866025 0.5 73.2751 55.1841)" stroke="#65B6D6"/>
<rect width="83.4554" height="41.7277" transform="matrix(0.866025 0.5 0 1 1.00046 96.9114)" stroke="#65B6D6"/>
<rect width="83.4554" height="41.7277" transform="matrix(0.866025 -0.5 0 1 73.2751 138.639)" stroke="#65B6D6"/>
<rect width="83.4554" height="83.4554" transform="matrix(0.866025 0.5 -0.866025 0.5 73.2746 180.366)" stroke="#65B6D6"/>
<rect width="83.4554" height="41.7277" transform="matrix(0.866025 0.5 0 1 1 222.094)" stroke="#65B6D6"/>
<rect width="83.4554" height="41.7277" transform="matrix(0.866025 -0.5 0 1 73.2746 263.821)" stroke="#65B6D6"/>
<rect width="83.4554" height="83.4554" transform="matrix(0.866025 0.5 -0.866025 0.5 73.2746 305.55)" stroke="#65B6D6"/>
<rect width="83.4554" height="41.7277" transform="matrix(0.866025 0.5 0 1 1 347.277)" stroke="#65B6D6"/>
<rect width="83.4554" height="41.7277" transform="matrix(0.866025 -0.5 0 1 73.2746 389.005)" stroke="#65B6D6"/>
<rect width="83.4554" height="83.4554" transform="matrix(0.866025 0.5 -0.866025 0.5 73.2751 430.732)" stroke="#65B6D6"/>
<rect width="83.4554" height="41.7277" transform="matrix(0.866025 0.5 0 1 1.00046 472.46)" stroke="#65B6D6"/>
<rect width="83.4554" height="41.7277" transform="matrix(0.866025 -0.5 0 1 73.2751 514.188)" stroke="#65B6D6"/>
<rect width="83.4554" height="83.4554" transform="matrix(0.866025 0.5 -0.866025 0.5 73.2755 555.924)" stroke="#65B6D6"/>
<rect width="83.4554" height="41.7277" transform="matrix(0.866025 0.5 0 1 1.00089 597.652)" stroke="#65B6D6"/>
<rect width="83.4554" height="41.7277" transform="matrix(0.866025 -0.5 0 1 73.2755 639.379)" stroke="#65B6D6"/>
<rect width="83.4554" height="83.4554" transform="matrix(0.866025 0.5 -0.866025 0.5 73.2746 681.105)" stroke="#65B6D6"/>
<rect width="83.4554" height="41.7277" transform="matrix(0.866025 0.5 0 1 1 722.833)" stroke="#65B6D6"/>
<rect width="83.4554" height="41.7277" transform="matrix(0.866025 -0.5 0 1 73.2741 764.561)" stroke="#65B6D6"/>
<rect width="83.4554" height="83.4554" transform="matrix(0.866025 0.5 -0.866025 0.5 217.824 -70)" stroke="#65B6D6"/>
<rect width="83.4554" height="41.7277" transform="matrix(0.866025 0.5 0 1 145.549 -28.2722)" stroke="#65B6D6"/>
<rect width="83.4554" height="41.7277" transform="matrix(0.866025 -0.5 0 1 217.824 13.4561)" stroke="#65B6D6"/>
<rect width="83.4554" height="83.4554" transform="matrix(0.866025 0.5 -0.866025 0.5 217.823 55.1836)" stroke="#65B6D6"/>
<rect width="83.4554" height="41.7277" transform="matrix(0.866025 0.5 0 1 145.549 96.9114)" stroke="#65B6D6"/>
<rect width="83.4554" height="41.7277" transform="matrix(0.866025 -0.5 0 1 217.823 138.639)" stroke="#65B6D6"/>
<rect width="83.4554" height="83.4554" transform="matrix(0.866025 0.5 -0.866025 0.5 217.824 180.366)" stroke="#65B6D6"/>
<rect width="83.4554" height="41.7277" transform="matrix(0.866025 0.5 0 1 145.549 222.094)" stroke="#65B6D6"/>
<rect width="83.4554" height="41.7277" transform="matrix(0.866025 -0.5 0 1 217.824 263.822)" stroke="#65B6D6"/>
<rect width="83.4554" height="83.4554" transform="matrix(0.866025 0.5 -0.866025 0.5 217.823 305.55)" stroke="#65B6D6"/>
<rect width="83.4554" height="41.7277" transform="matrix(0.866025 0.5 0 1 145.549 347.277)" stroke="#65B6D6"/>
<rect width="83.4554" height="41.7277" transform="matrix(0.866025 -0.5 0 1 217.824 389.005)" stroke="#65B6D6"/>
<rect width="83.4554" height="83.4554" transform="matrix(0.866025 0.5 -0.866025 0.5 217.824 430.733)" stroke="#65B6D6"/>
<rect width="83.4554" height="41.7277" transform="matrix(0.866025 0.5 0 1 145.549 472.46)" stroke="#65B6D6"/>
<rect width="83.4554" height="41.7277" transform="matrix(0.866025 -0.5 0 1 217.824 514.188)" stroke="#65B6D6"/>
<rect width="83.4554" height="83.4554" transform="matrix(0.866025 0.5 -0.866025 0.5 217.824 555.924)" stroke="#65B6D6"/>
<rect width="83.4554" height="41.7277" transform="matrix(0.866025 0.5 0 1 145.549 597.651)" stroke="#65B6D6"/>
<rect width="83.4554" height="41.7277" transform="matrix(0.866025 -0.5 0 1 217.824 639.379)" stroke="#65B6D6"/>
<rect width="83.4554" height="83.4554" transform="matrix(0.866025 0.5 -0.866025 0.5 217.824 681.108)" stroke="#65B6D6"/>
<rect width="83.4554" height="41.7277" transform="matrix(0.866025 0.5 0 1 145.549 722.835)" stroke="#65B6D6"/>
<rect width="83.4554" height="41.7277" transform="matrix(0.866025 -0.5 0 1 217.824 764.563)" stroke="#65B6D6"/>
<rect width="83.4554" height="83.4554" transform="matrix(0.866025 0.5 -0.866025 0.5 362.373 -69.9995)" stroke="#65B6D6"/>
<rect width="83.4554" height="41.7277" transform="matrix(0.866025 0.5 0 1 290.098 -28.2717)" stroke="#65B6D6"/>
<rect width="83.4554" height="41.7277" transform="matrix(0.866025 -0.5 0 1 362.373 13.4558)" stroke="#65B6D6"/>
<rect width="83.4554" height="83.4554" transform="matrix(0.866025 0.5 -0.866025 0.5 362.373 55.1843)" stroke="#65B6D6"/>
<rect width="83.4554" height="41.7277" transform="matrix(0.866025 0.5 0 1 290.098 96.9119)" stroke="#65B6D6"/>
<rect width="83.4554" height="41.7277" transform="matrix(0.866025 -0.5 0 1 362.373 138.639)" stroke="#65B6D6"/>
<rect width="83.4554" height="83.4554" transform="matrix(0.866025 0.5 -0.866025 0.5 362.373 180.366)" stroke="#65B6D6"/>
<rect width="83.4554" height="41.7277" transform="matrix(0.866025 0.5 0 1 290.098 222.094)" stroke="#65B6D6"/>
<rect width="83.4554" height="41.7277" transform="matrix(0.866025 -0.5 0 1 362.373 263.822)" stroke="#65B6D6"/>
<rect width="83.4554" height="83.4554" transform="matrix(0.866025 0.5 -0.866025 0.5 362.373 305.55)" stroke="#65B6D6"/>
<rect width="83.4554" height="41.7277" transform="matrix(0.866025 0.5 0 1 290.098 347.277)" stroke="#65B6D6"/>
<rect width="83.4554" height="41.7277" transform="matrix(0.866025 -0.5 0 1 362.373 389.005)" stroke="#65B6D6"/>
<rect width="83.4554" height="83.4554" transform="matrix(0.866025 0.5 -0.866025 0.5 362.373 430.732)" stroke="#65B6D6"/>
<rect width="83.4554" height="41.7277" transform="matrix(0.866025 0.5 0 1 290.098 472.46)" stroke="#65B6D6"/>
<rect width="83.4554" height="41.7277" transform="matrix(0.866025 -0.5 0 1 362.373 514.188)" stroke="#65B6D6"/>
<rect width="83.4554" height="83.4554" transform="matrix(0.866025 0.5 -0.866025 0.5 362.373 555.924)" stroke="#65B6D6"/>
<rect width="83.4554" height="41.7277" transform="matrix(0.866025 0.5 0 1 290.099 597.651)" stroke="#65B6D6"/>
<rect width="83.4554" height="41.7277" transform="matrix(0.866025 -0.5 0 1 362.373 639.379)" stroke="#65B6D6"/>
<rect width="83.4554" height="83.4554" transform="matrix(0.866025 0.5 -0.866025 0.5 362.373 681.106)" stroke="#65B6D6"/>
<rect width="83.4554" height="41.7277" transform="matrix(0.866025 0.5 0 1 290.099 722.834)" stroke="#65B6D6"/>
<rect width="83.4554" height="41.7277" transform="matrix(0.866025 -0.5 0 1 362.373 764.562)" stroke="#65B6D6"/>
<rect width="83.4554" height="83.4554" transform="matrix(0.866025 0.5 -0.866025 0.5 506.922 -69.9995)" stroke="#65B6D6"/>
<rect width="83.4554" height="41.7277" transform="matrix(0.866025 0.5 0 1 434.647 -28.2717)" stroke="#65B6D6"/>
<rect width="83.4554" height="41.7277" transform="matrix(0.866025 -0.5 0 1 506.922 13.4558)" stroke="#65B6D6"/>
<rect width="83.4554" height="83.4554" transform="matrix(0.866025 0.5 -0.866025 0.5 506.922 55.1836)" stroke="#65B6D6"/>
<rect width="83.4554" height="41.7277" transform="matrix(0.866025 0.5 0 1 434.647 96.9111)" stroke="#65B6D6"/>
<rect width="83.4554" height="41.7277" transform="matrix(0.866025 -0.5 0 1 506.922 138.639)" stroke="#65B6D6"/>
<rect width="83.4554" height="83.4554" transform="matrix(0.866025 0.5 -0.866025 0.5 506.922 180.366)" stroke="#65B6D6"/>
<rect width="83.4554" height="41.7277" transform="matrix(0.866025 0.5 0 1 434.647 222.094)" stroke="#65B6D6"/>
<rect width="83.4554" height="41.7277" transform="matrix(0.866025 -0.5 0 1 506.922 263.822)" stroke="#65B6D6"/>
<rect width="83.4554" height="83.4554" transform="matrix(0.866025 0.5 -0.866025 0.5 506.922 305.55)" stroke="#65B6D6"/>
<rect width="83.4554" height="41.7277" transform="matrix(0.866025 0.5 0 1 434.648 347.277)" stroke="#65B6D6"/>
<rect width="83.4554" height="41.7277" transform="matrix(0.866025 -0.5 0 1 506.922 389.005)" stroke="#65B6D6"/>
<rect width="83.4554" height="83.4554" transform="matrix(0.866025 0.5 -0.866025 0.5 506.922 430.732)" stroke="#65B6D6"/>
<rect width="83.4554" height="41.7277" transform="matrix(0.866025 0.5 0 1 434.648 472.46)" stroke="#65B6D6"/>
<rect width="83.4554" height="41.7277" transform="matrix(0.866025 -0.5 0 1 506.922 514.188)" stroke="#65B6D6"/>
<rect width="83.4554" height="83.4554" transform="matrix(0.866025 0.5 -0.866025 0.5 506.922 555.925)" stroke="#65B6D6"/>
<rect width="83.4554" height="41.7277" transform="matrix(0.866025 0.5 0 1 434.648 597.653)" stroke="#65B6D6"/>
<rect width="83.4554" height="41.7277" transform="matrix(0.866025 -0.5 0 1 506.922 639.381)" stroke="#65B6D6"/>
<rect width="83.4554" height="83.4554" transform="matrix(0.866025 0.5 -0.866025 0.5 506.922 681.106)" stroke="#65B6D6"/>
<rect width="83.4554" height="41.7277" transform="matrix(0.866025 0.5 0 1 434.648 722.834)" stroke="#65B6D6"/>
<rect width="83.4554" height="41.7277" transform="matrix(0.866025 -0.5 0 1 506.922 764.562)" stroke="#65B6D6"/>
<rect width="83.4554" height="83.4554" transform="matrix(0.866025 0.5 -0.866025 0.5 651.471 -69.999)" stroke="#65B6D6"/>
<rect width="83.4554" height="41.7277" transform="matrix(0.866025 0.5 0 1 579.196 -28.2715)" stroke="#65B6D6"/>
<rect width="83.4554" height="41.7277" transform="matrix(0.866025 -0.5 0 1 651.471 13.4563)" stroke="#65B6D6"/>
<rect width="83.4554" height="83.4554" transform="matrix(0.866025 0.5 -0.866025 0.5 651.471 55.1838)" stroke="#65B6D6"/>
<rect width="83.4554" height="41.7277" transform="matrix(0.866025 0.5 0 1 579.196 96.9114)" stroke="#65B6D6"/>
<rect width="83.4554" height="41.7277" transform="matrix(0.866025 -0.5 0 1 651.471 138.639)" stroke="#65B6D6"/>
<rect width="83.4554" height="83.4554" transform="matrix(0.866025 0.5 -0.866025 0.5 651.471 180.366)" stroke="#65B6D6"/>
<rect width="83.4554" height="41.7277" transform="matrix(0.866025 0.5 0 1 579.196 222.094)" stroke="#65B6D6"/>
<rect width="83.4554" height="41.7277" transform="matrix(0.866025 -0.5 0 1 651.471 263.822)" stroke="#65B6D6"/>
<rect width="83.4554" height="83.4554" transform="matrix(0.866025 0.5 -0.866025 0.5 651.47 305.551)" stroke="#65B6D6"/>
<rect width="83.4554" height="41.7277" transform="matrix(0.866025 0.5 0 1 579.196 347.277)" stroke="#65B6D6"/>
<rect width="83.4554" height="41.7277" transform="matrix(0.866025 -0.5 0 1 651.47 389.005)" stroke="#65B6D6"/>
<rect width="83.4554" height="83.4554" transform="matrix(0.866025 0.5 -0.866025 0.5 651.471 430.732)" stroke="#65B6D6"/>
<rect width="83.4554" height="41.7277" transform="matrix(0.866025 0.5 0 1 579.196 472.46)" stroke="#65B6D6"/>
<rect width="83.4554" height="41.7277" transform="matrix(0.866025 -0.5 0 1 651.471 514.188)" stroke="#65B6D6"/>
<rect width="83.4554" height="83.4554" transform="matrix(0.866025 0.5 -0.866025 0.5 651.471 555.924)" stroke="#65B6D6"/>
<rect width="83.4554" height="41.7277" transform="matrix(0.866025 0.5 0 1 579.196 597.651)" stroke="#65B6D6"/>
<rect width="83.4554" height="41.7277" transform="matrix(0.866025 -0.5 0 1 651.47 639.379)" stroke="#65B6D6"/>
<rect width="83.4554" height="83.4554" transform="matrix(0.866025 0.5 -0.866025 0.5 651.471 681.107)" stroke="#65B6D6"/>
<rect width="83.4554" height="41.7277" transform="matrix(0.866025 0.5 0 1 579.196 722.834)" stroke="#65B6D6"/>
<rect width="83.4554" height="41.7277" transform="matrix(0.866025 -0.5 0 1 651.471 764.562)" stroke="#65B6D6"/>
<rect width="83.4554" height="83.4554" transform="matrix(0.866025 0.5 -0.866025 0.5 796.019 -69.9995)" stroke="#65B6D6"/>
<rect width="83.4554" height="41.7277" transform="matrix(0.866025 0.5 0 1 723.745 -28.272)" stroke="#65B6D6"/>
<rect width="83.4554" height="41.7277" transform="matrix(0.866025 -0.5 0 1 796.019 13.4561)" stroke="#65B6D6"/>
<rect width="83.4554" height="83.4554" transform="matrix(0.866025 0.5 -0.866025 0.5 796.019 55.1841)" stroke="#65B6D6"/>
<rect width="83.4554" height="41.7277" transform="matrix(0.866025 0.5 0 1 723.745 96.9116)" stroke="#65B6D6"/>
<rect width="83.4554" height="41.7277" transform="matrix(0.866025 -0.5 0 1 796.019 138.639)" stroke="#65B6D6"/>
<rect width="83.4554" height="83.4554" transform="matrix(0.866025 0.5 -0.866025 0.5 796.019 180.366)" stroke="#65B6D6"/>
<rect width="83.4554" height="41.7277" transform="matrix(0.866025 0.5 0 1 723.745 222.094)" stroke="#65B6D6"/>
<rect width="83.4554" height="41.7277" transform="matrix(0.866025 -0.5 0 1 796.019 263.822)" stroke="#65B6D6"/>
<rect width="83.4554" height="83.4554" transform="matrix(0.866025 0.5 -0.866025 0.5 796.019 305.55)" stroke="#65B6D6"/>
<rect width="83.4554" height="41.7277" transform="matrix(0.866025 0.5 0 1 723.745 347.278)" stroke="#65B6D6"/>
<rect width="83.4554" height="41.7277" transform="matrix(0.866025 -0.5 0 1 796.019 389.005)" stroke="#65B6D6"/>
<rect width="83.4554" height="83.4554" transform="matrix(0.866025 0.5 -0.866025 0.5 796.019 430.732)" stroke="#65B6D6"/>
<rect width="83.4554" height="41.7277" transform="matrix(0.866025 0.5 0 1 723.745 472.46)" stroke="#65B6D6"/>
<rect width="83.4554" height="41.7277" transform="matrix(0.866025 -0.5 0 1 796.019 514.188)" stroke="#65B6D6"/>
<rect width="83.4554" height="83.4554" transform="matrix(0.866025 0.5 -0.866025 0.5 796.018 555.922)" stroke="#65B6D6"/>
<rect width="83.4554" height="41.7277" transform="matrix(0.866025 0.5 0 1 723.743 597.65)" stroke="#65B6D6"/>
<rect width="83.4554" height="41.7277" transform="matrix(0.866025 -0.5 0 1 796.018 639.377)" stroke="#65B6D6"/>
<rect width="83.4554" height="83.4554" transform="matrix(0.866025 0.5 -0.866025 0.5 796.019 681.106)" stroke="#65B6D6"/>
<rect width="83.4554" height="41.7277" transform="matrix(0.866025 0.5 0 1 723.745 722.834)" stroke="#65B6D6"/>
<rect width="83.4554" height="41.7277" transform="matrix(0.866025 -0.5 0 1 796.019 764.562)" stroke="#65B6D6"/>
</g>
<defs>
<clipPath id="clip0_37_5725">
<rect width="796" height="806" fill="white"/>
</clipPath>
</defs>
</svg>
