<svg width="740" height="331" viewBox="0 0 740 331" fill="none" xmlns="http://www.w3.org/2000/svg">
<g clip-path="url(#clip0_37_6368)">
<rect width="32.6465" height="32.6465" transform="matrix(0.866025 0.5 -0.866025 0.5 29.273 -13)" stroke="#65B6D6"/>
<rect width="32.6465" height="16.3233" transform="matrix(0.866025 0.5 0 1 1.00018 3.32324)" stroke="#65B6D6"/>
<rect width="32.6465" height="16.3233" transform="matrix(0.866025 -0.5 0 1 29.273 19.6465)" stroke="#65B6D6"/>
<rect width="32.6465" height="32.6465" transform="matrix(0.866025 0.5 -0.866025 0.5 29.2728 35.9697)" stroke="#65B6D6"/>
<rect width="32.6465" height="16.3233" transform="matrix(0.866025 0.5 0 1 1.00012 52.293)" stroke="#65B6D6"/>
<rect width="32.6465" height="16.3233" transform="matrix(0.866025 -0.5 0 1 29.2729 68.6167)" stroke="#65B6D6"/>
<rect width="32.6465" height="32.6465" transform="matrix(0.866025 0.5 -0.866025 0.5 29.2727 84.9395)" stroke="#65B6D6"/>
<rect width="32.6465" height="16.3233" transform="matrix(0.866025 0.5 0 1 1 101.262)" stroke="#65B6D6"/>
<rect width="32.6465" height="16.3233" transform="matrix(0.866025 -0.5 0 1 29.2728 117.586)" stroke="#65B6D6"/>
<rect width="32.6465" height="32.6465" transform="matrix(0.866025 0.5 -0.866025 0.5 29.2728 133.909)" stroke="#65B6D6"/>
<rect width="32.6465" height="16.3233" transform="matrix(0.866025 0.5 0 1 1.00012 150.232)" stroke="#65B6D6"/>
<rect width="32.6465" height="16.3233" transform="matrix(0.866025 -0.5 0 1 29.2728 166.556)" stroke="#65B6D6"/>
<rect width="32.6465" height="32.6465" transform="matrix(0.866025 0.5 -0.866025 0.5 29.2728 182.879)" stroke="#65B6D6"/>
<rect width="32.6465" height="16.3233" transform="matrix(0.866025 0.5 0 1 1.00012 199.202)" stroke="#65B6D6"/>
<rect width="32.6465" height="16.3233" transform="matrix(0.866025 -0.5 0 1 29.2728 215.525)" stroke="#65B6D6"/>
<rect width="32.6465" height="32.6465" transform="matrix(0.866025 0.5 -0.866025 0.5 29.273 231.852)" stroke="#65B6D6"/>
<rect width="32.6465" height="16.3233" transform="matrix(0.866025 0.5 0 1 1.00031 248.175)" stroke="#65B6D6"/>
<rect width="32.6465" height="16.3233" transform="matrix(0.866025 -0.5 0 1 29.2731 264.499)" stroke="#65B6D6"/>
<rect width="32.6465" height="32.6465" transform="matrix(0.866025 0.5 -0.866025 0.5 29.2728 280.822)" stroke="#65B6D6"/>
<rect width="32.6465" height="16.3233" transform="matrix(0.866025 0.5 0 1 1.00012 297.145)" stroke="#65B6D6"/>
<rect width="32.6465" height="16.3233" transform="matrix(0.866025 -0.5 0 1 29.2728 313.468)" stroke="#65B6D6"/>
<rect width="32.6465" height="32.6465" transform="matrix(0.866025 0.5 -0.866025 0.5 85.8181 -13)" stroke="#65B6D6"/>
<rect width="32.6465" height="16.3233" transform="matrix(0.866025 0.5 0 1 57.5455 3.32324)" stroke="#65B6D6"/>
<rect width="32.6465" height="16.3233" transform="matrix(0.866025 -0.5 0 1 85.8182 19.6465)" stroke="#65B6D6"/>
<rect width="32.6465" height="32.6465" transform="matrix(0.866025 0.5 -0.866025 0.5 85.8182 35.9697)" stroke="#65B6D6"/>
<rect width="32.6465" height="16.3233" transform="matrix(0.866025 0.5 0 1 57.5455 52.293)" stroke="#65B6D6"/>
<rect width="32.6465" height="16.3233" transform="matrix(0.866025 -0.5 0 1 85.8182 68.6162)" stroke="#65B6D6"/>
<rect width="32.6465" height="32.6465" transform="matrix(0.866025 0.5 -0.866025 0.5 85.8182 84.9404)" stroke="#65B6D6"/>
<rect width="32.6465" height="16.3233" transform="matrix(0.866025 0.5 0 1 57.5456 101.264)" stroke="#65B6D6"/>
<rect width="32.6465" height="16.3233" transform="matrix(0.866025 -0.5 0 1 85.8182 117.586)" stroke="#65B6D6"/>
<rect width="32.6465" height="32.6465" transform="matrix(0.866025 0.5 -0.866025 0.5 85.8182 133.909)" stroke="#65B6D6"/>
<rect width="32.6465" height="16.3233" transform="matrix(0.866025 0.5 0 1 57.5456 150.232)" stroke="#65B6D6"/>
<rect width="32.6465" height="16.3233" transform="matrix(0.866025 -0.5 0 1 85.8182 166.556)" stroke="#65B6D6"/>
<rect width="32.6465" height="32.6465" transform="matrix(0.866025 0.5 -0.866025 0.5 85.8184 182.879)" stroke="#65B6D6"/>
<rect width="32.6465" height="16.3233" transform="matrix(0.866025 0.5 0 1 57.5455 199.203)" stroke="#65B6D6"/>
<rect width="32.6465" height="16.3233" transform="matrix(0.866025 -0.5 0 1 85.8184 215.526)" stroke="#65B6D6"/>
<rect width="32.6465" height="32.6465" transform="matrix(0.866025 0.5 -0.866025 0.5 85.8184 231.852)" stroke="#65B6D6"/>
<rect width="32.6465" height="16.3233" transform="matrix(0.866025 0.5 0 1 57.5455 248.175)" stroke="#65B6D6"/>
<rect width="32.6465" height="16.3233" transform="matrix(0.866025 -0.5 0 1 85.8184 264.499)" stroke="#65B6D6"/>
<rect width="32.6465" height="32.6465" transform="matrix(0.866025 0.5 -0.866025 0.5 85.8182 280.823)" stroke="#65B6D6"/>
<rect width="32.6465" height="16.3233" transform="matrix(0.866025 0.5 0 1 57.5455 297.146)" stroke="#65B6D6"/>
<rect width="32.6465" height="16.3233" transform="matrix(0.866025 -0.5 0 1 85.8182 313.469)" stroke="#65B6D6"/>
<rect width="32.6465" height="32.6465" transform="matrix(0.866025 0.5 -0.866025 0.5 142.364 -13)" stroke="#65B6D6"/>
<rect width="32.6465" height="16.3233" transform="matrix(0.866025 0.5 0 1 114.091 3.32324)" stroke="#65B6D6"/>
<rect width="32.6465" height="16.3233" transform="matrix(0.866025 -0.5 0 1 142.364 19.6465)" stroke="#65B6D6"/>
<rect width="32.6465" height="32.6465" transform="matrix(0.866025 0.5 -0.866025 0.5 142.364 35.9707)" stroke="#65B6D6"/>
<rect width="32.6465" height="16.3233" transform="matrix(0.866025 0.5 0 1 114.091 52.2935)" stroke="#65B6D6"/>
<rect width="32.6465" height="16.3233" transform="matrix(0.866025 -0.5 0 1 142.364 68.6167)" stroke="#65B6D6"/>
<rect width="32.6465" height="32.6465" transform="matrix(0.866025 0.5 -0.866025 0.5 142.364 84.9395)" stroke="#65B6D6"/>
<rect width="32.6465" height="16.3233" transform="matrix(0.866025 0.5 0 1 114.091 101.263)" stroke="#65B6D6"/>
<rect width="32.6465" height="16.3233" transform="matrix(0.866025 -0.5 0 1 142.364 117.586)" stroke="#65B6D6"/>
<rect width="32.6465" height="32.6465" transform="matrix(0.866025 0.5 -0.866025 0.5 142.364 133.909)" stroke="#65B6D6"/>
<rect width="32.6465" height="16.3233" transform="matrix(0.866025 0.5 0 1 114.091 150.232)" stroke="#65B6D6"/>
<rect width="32.6465" height="16.3233" transform="matrix(0.866025 -0.5 0 1 142.364 166.556)" stroke="#65B6D6"/>
<rect width="32.6465" height="32.6465" transform="matrix(0.866025 0.5 -0.866025 0.5 142.364 182.879)" stroke="#65B6D6"/>
<rect width="32.6465" height="16.3233" transform="matrix(0.866025 0.5 0 1 114.091 199.202)" stroke="#65B6D6"/>
<rect width="32.6465" height="16.3233" transform="matrix(0.866025 -0.5 0 1 142.364 215.525)" stroke="#65B6D6"/>
<rect width="32.6465" height="32.6465" transform="matrix(0.866025 0.5 -0.866025 0.5 142.364 231.852)" stroke="#65B6D6"/>
<rect width="32.6465" height="16.3233" transform="matrix(0.866025 0.5 0 1 114.091 248.175)" stroke="#65B6D6"/>
<rect width="32.6465" height="16.3233" transform="matrix(0.866025 -0.5 0 1 142.364 264.499)" stroke="#65B6D6"/>
<rect width="32.6465" height="32.6465" transform="matrix(0.866025 0.5 -0.866025 0.5 142.364 280.823)" stroke="#65B6D6"/>
<rect width="32.6465" height="16.3233" transform="matrix(0.866025 0.5 0 1 114.091 297.146)" stroke="#65B6D6"/>
<rect width="32.6465" height="16.3233" transform="matrix(0.866025 -0.5 0 1 142.364 313.469)" stroke="#65B6D6"/>
<rect width="32.6465" height="32.6465" transform="matrix(0.866025 0.5 -0.866025 0.5 198.909 -13)" stroke="#65B6D6"/>
<rect width="32.6465" height="16.3233" transform="matrix(0.866025 0.5 0 1 170.637 3.32324)" stroke="#65B6D6"/>
<rect width="32.6465" height="16.3233" transform="matrix(0.866025 -0.5 0 1 198.909 19.6465)" stroke="#65B6D6"/>
<rect width="32.6465" height="32.6465" transform="matrix(0.866025 0.5 -0.866025 0.5 198.909 35.9697)" stroke="#65B6D6"/>
<rect width="32.6465" height="16.3233" transform="matrix(0.866025 0.5 0 1 170.636 52.293)" stroke="#65B6D6"/>
<rect width="32.6465" height="16.3233" transform="matrix(0.866025 -0.5 0 1 198.909 68.6162)" stroke="#65B6D6"/>
<rect width="32.6465" height="32.6465" transform="matrix(0.866025 0.5 -0.866025 0.5 198.909 84.9404)" stroke="#65B6D6"/>
<rect width="32.6465" height="16.3233" transform="matrix(0.866025 0.5 0 1 170.637 101.264)" stroke="#65B6D6"/>
<rect width="32.6465" height="16.3233" transform="matrix(0.866025 -0.5 0 1 198.909 117.586)" stroke="#65B6D6"/>
<rect width="32.6465" height="32.6465" transform="matrix(0.866025 0.5 -0.866025 0.5 198.909 133.909)" stroke="#65B6D6"/>
<rect width="32.6465" height="16.3233" transform="matrix(0.866025 0.5 0 1 170.637 150.232)" stroke="#65B6D6"/>
<rect width="32.6465" height="16.3233" transform="matrix(0.866025 -0.5 0 1 198.909 166.556)" stroke="#65B6D6"/>
<rect width="32.6465" height="32.6465" transform="matrix(0.866025 0.5 -0.866025 0.5 198.909 182.879)" stroke="#65B6D6"/>
<rect width="32.6465" height="16.3233" transform="matrix(0.866025 0.5 0 1 170.637 199.202)" stroke="#65B6D6"/>
<rect width="32.6465" height="16.3233" transform="matrix(0.866025 -0.5 0 1 198.909 215.526)" stroke="#65B6D6"/>
<rect width="32.6465" height="32.6465" transform="matrix(0.866025 0.5 -0.866025 0.5 198.909 231.852)" stroke="#65B6D6"/>
<rect width="32.6465" height="16.3233" transform="matrix(0.866025 0.5 0 1 170.636 248.175)" stroke="#65B6D6"/>
<rect width="32.6465" height="16.3233" transform="matrix(0.866025 -0.5 0 1 198.909 264.499)" stroke="#65B6D6"/>
<rect width="32.6465" height="32.6465" transform="matrix(0.866025 0.5 -0.866025 0.5 198.909 280.823)" stroke="#65B6D6"/>
<rect width="32.6465" height="16.3233" transform="matrix(0.866025 0.5 0 1 170.637 297.146)" stroke="#65B6D6"/>
<rect width="32.6465" height="16.3233" transform="matrix(0.866025 -0.5 0 1 198.909 313.469)" stroke="#65B6D6"/>
<rect width="32.6465" height="32.6465" transform="matrix(0.866025 0.5 -0.866025 0.5 255.455 -12.999)" stroke="#65B6D6"/>
<rect width="32.6465" height="16.3233" transform="matrix(0.866025 0.5 0 1 227.182 3.32324)" stroke="#65B6D6"/>
<rect width="32.6465" height="16.3233" transform="matrix(0.866025 -0.5 0 1 255.455 19.6465)" stroke="#65B6D6"/>
<rect width="32.6465" height="32.6465" transform="matrix(0.866025 0.5 -0.866025 0.5 255.455 35.9697)" stroke="#65B6D6"/>
<rect width="32.6465" height="16.3233" transform="matrix(0.866025 0.5 0 1 227.182 52.293)" stroke="#65B6D6"/>
<rect width="32.6465" height="16.3233" transform="matrix(0.866025 -0.5 0 1 255.455 68.6167)" stroke="#65B6D6"/>
<rect width="32.6465" height="32.6465" transform="matrix(0.866025 0.5 -0.866025 0.5 255.455 84.9404)" stroke="#65B6D6"/>
<rect width="32.6465" height="16.3233" transform="matrix(0.866025 0.5 0 1 227.182 101.264)" stroke="#65B6D6"/>
<rect width="32.6465" height="16.3233" transform="matrix(0.866025 -0.5 0 1 255.455 117.586)" stroke="#65B6D6"/>
<rect width="32.6465" height="32.6465" transform="matrix(0.866025 0.5 -0.866025 0.5 255.455 133.909)" stroke="#65B6D6"/>
<rect width="32.6465" height="16.3233" transform="matrix(0.866025 0.5 0 1 227.182 150.232)" stroke="#65B6D6"/>
<rect width="32.6465" height="16.3233" transform="matrix(0.866025 -0.5 0 1 255.455 166.556)" stroke="#65B6D6"/>
<rect width="32.6465" height="32.6465" transform="matrix(0.866025 0.5 -0.866025 0.5 255.455 182.879)" stroke="#65B6D6"/>
<rect width="32.6465" height="16.3233" transform="matrix(0.866025 0.5 0 1 227.182 199.202)" stroke="#65B6D6"/>
<rect width="32.6465" height="16.3233" transform="matrix(0.866025 -0.5 0 1 255.455 215.526)" stroke="#65B6D6"/>
<rect width="32.6465" height="32.6465" transform="matrix(0.866025 0.5 -0.866025 0.5 255.455 231.852)" stroke="#65B6D6"/>
<rect width="32.6465" height="16.3233" transform="matrix(0.866025 0.5 0 1 227.182 248.175)" stroke="#65B6D6"/>
<rect width="32.6465" height="16.3233" transform="matrix(0.866025 -0.5 0 1 255.455 264.499)" stroke="#65B6D6"/>
<rect width="32.6465" height="32.6465" transform="matrix(0.866025 0.5 -0.866025 0.5 255.455 280.823)" stroke="#65B6D6"/>
<rect width="32.6465" height="16.3233" transform="matrix(0.866025 0.5 0 1 227.182 297.146)" stroke="#65B6D6"/>
<rect width="32.6465" height="16.3233" transform="matrix(0.866025 -0.5 0 1 255.455 313.469)" stroke="#65B6D6"/>
<rect width="32.6465" height="32.6465" transform="matrix(0.866025 0.5 -0.866025 0.5 312 -13)" stroke="#65B6D6"/>
<rect width="32.6465" height="16.3233" transform="matrix(0.866025 0.5 0 1 283.727 3.32324)" stroke="#65B6D6"/>
<rect width="32.6465" height="16.3233" transform="matrix(0.866025 -0.5 0 1 312 19.6465)" stroke="#65B6D6"/>
<rect width="32.6465" height="32.6465" transform="matrix(0.866025 0.5 -0.866025 0.5 312 35.9697)" stroke="#65B6D6"/>
<rect width="32.6465" height="16.3233" transform="matrix(0.866025 0.5 0 1 283.727 52.2935)" stroke="#65B6D6"/>
<rect width="32.6465" height="16.3233" transform="matrix(0.866025 -0.5 0 1 312 68.6167)" stroke="#65B6D6"/>
<rect width="32.6465" height="32.6465" transform="matrix(0.866025 0.5 -0.866025 0.5 312 84.9395)" stroke="#65B6D6"/>
<rect width="32.6465" height="16.3233" transform="matrix(0.866025 0.5 0 1 283.727 101.262)" stroke="#65B6D6"/>
<rect width="32.6465" height="16.3233" transform="matrix(0.866025 -0.5 0 1 312 117.586)" stroke="#65B6D6"/>
<rect width="32.6465" height="32.6465" transform="matrix(0.866025 0.5 -0.866025 0.5 312 133.909)" stroke="#65B6D6"/>
<rect width="32.6465" height="16.3233" transform="matrix(0.866025 0.5 0 1 283.727 150.232)" stroke="#65B6D6"/>
<rect width="32.6465" height="16.3233" transform="matrix(0.866025 -0.5 0 1 312 166.556)" stroke="#65B6D6"/>
<rect width="32.6465" height="32.6465" transform="matrix(0.866025 0.5 -0.866025 0.5 312 182.879)" stroke="#65B6D6"/>
<rect width="32.6465" height="16.3233" transform="matrix(0.866025 0.5 0 1 283.727 199.202)" stroke="#65B6D6"/>
<rect width="32.6465" height="16.3233" transform="matrix(0.866025 -0.5 0 1 312 215.526)" stroke="#65B6D6"/>
<rect width="32.6465" height="32.6465" transform="matrix(0.866025 0.5 -0.866025 0.5 312 231.852)" stroke="#65B6D6"/>
<rect width="32.6465" height="16.3233" transform="matrix(0.866025 0.5 0 1 283.727 248.175)" stroke="#65B6D6"/>
<rect width="32.6465" height="16.3233" transform="matrix(0.866025 -0.5 0 1 312 264.499)" stroke="#65B6D6"/>
<rect width="32.6465" height="32.6465" transform="matrix(0.866025 0.5 -0.866025 0.5 312 280.823)" stroke="#65B6D6"/>
<rect width="32.6465" height="16.3233" transform="matrix(0.866025 0.5 0 1 283.727 297.146)" stroke="#65B6D6"/>
<rect width="32.6465" height="16.3233" transform="matrix(0.866025 -0.5 0 1 312 313.469)" stroke="#65B6D6"/>
<rect width="32.6465" height="32.6465" transform="matrix(0.866025 0.5 -0.866025 0.5 368.546 -13)" stroke="#65B6D6"/>
<rect width="32.6465" height="16.3233" transform="matrix(0.866025 0.5 0 1 340.273 3.32324)" stroke="#65B6D6"/>
<rect width="32.6465" height="16.3233" transform="matrix(0.866025 -0.5 0 1 368.546 19.6465)" stroke="#65B6D6"/>
<rect width="32.6465" height="32.6465" transform="matrix(0.866025 0.5 -0.866025 0.5 368.546 35.9697)" stroke="#65B6D6"/>
<rect width="32.6465" height="16.3233" transform="matrix(0.866025 0.5 0 1 340.273 52.293)" stroke="#65B6D6"/>
<rect width="32.6465" height="16.3233" transform="matrix(0.866025 -0.5 0 1 368.545 68.6167)" stroke="#65B6D6"/>
<rect width="32.6465" height="32.6465" transform="matrix(0.866025 0.5 -0.866025 0.5 368.546 84.9395)" stroke="#65B6D6"/>
<rect width="32.6465" height="16.3233" transform="matrix(0.866025 0.5 0 1 340.273 101.263)" stroke="#65B6D6"/>
<rect width="32.6465" height="16.3233" transform="matrix(0.866025 -0.5 0 1 368.546 117.586)" stroke="#65B6D6"/>
<rect width="32.6465" height="32.6465" transform="matrix(0.866025 0.5 -0.866025 0.5 368.546 133.909)" stroke="#65B6D6"/>
<rect width="32.6465" height="16.3233" transform="matrix(0.866025 0.5 0 1 340.273 150.232)" stroke="#65B6D6"/>
<rect width="32.6465" height="16.3233" transform="matrix(0.866025 -0.5 0 1 368.546 166.556)" stroke="#65B6D6"/>
<rect width="32.6465" height="32.6465" transform="matrix(0.866025 0.5 -0.866025 0.5 368.546 182.879)" stroke="#65B6D6"/>
<rect width="32.6465" height="16.3233" transform="matrix(0.866025 0.5 0 1 340.273 199.202)" stroke="#65B6D6"/>
<rect width="32.6465" height="16.3233" transform="matrix(0.866025 -0.5 0 1 368.546 215.526)" stroke="#65B6D6"/>
<rect width="32.6465" height="32.6465" transform="matrix(0.866025 0.5 -0.866025 0.5 368.546 231.852)" stroke="#65B6D6"/>
<rect width="32.6465" height="16.3233" transform="matrix(0.866025 0.5 0 1 340.273 248.175)" stroke="#65B6D6"/>
<rect width="32.6465" height="16.3233" transform="matrix(0.866025 -0.5 0 1 368.546 264.499)" stroke="#65B6D6"/>
<rect width="32.6465" height="32.6465" transform="matrix(0.866025 0.5 -0.866025 0.5 368.546 280.823)" stroke="#65B6D6"/>
<rect width="32.6465" height="16.3233" transform="matrix(0.866025 0.5 0 1 340.273 297.146)" stroke="#65B6D6"/>
<rect width="32.6465" height="16.3233" transform="matrix(0.866025 -0.5 0 1 368.546 313.469)" stroke="#65B6D6"/>
<rect width="32.6465" height="32.6465" transform="matrix(0.866025 0.5 -0.866025 0.5 425.091 -13)" stroke="#65B6D6"/>
<rect width="32.6465" height="16.3233" transform="matrix(0.866025 0.5 0 1 396.818 3.32324)" stroke="#65B6D6"/>
<rect width="32.6465" height="16.3233" transform="matrix(0.866025 -0.5 0 1 425.091 19.6465)" stroke="#65B6D6"/>
<rect width="32.6465" height="32.6465" transform="matrix(0.866025 0.5 -0.866025 0.5 425.091 35.9697)" stroke="#65B6D6"/>
<rect width="32.6465" height="16.3233" transform="matrix(0.866025 0.5 0 1 396.818 52.293)" stroke="#65B6D6"/>
<rect width="32.6465" height="16.3233" transform="matrix(0.866025 -0.5 0 1 425.091 68.6167)" stroke="#65B6D6"/>
<rect width="32.6465" height="32.6465" transform="matrix(0.866025 0.5 -0.866025 0.5 425.091 84.9395)" stroke="#65B6D6"/>
<rect width="32.6465" height="16.3233" transform="matrix(0.866025 0.5 0 1 396.818 101.262)" stroke="#65B6D6"/>
<rect width="32.6465" height="16.3233" transform="matrix(0.866025 -0.5 0 1 425.091 117.585)" stroke="#65B6D6"/>
<rect width="32.6465" height="32.6465" transform="matrix(0.866025 0.5 -0.866025 0.5 425.091 133.909)" stroke="#65B6D6"/>
<rect width="32.6465" height="16.3233" transform="matrix(0.866025 0.5 0 1 396.818 150.232)" stroke="#65B6D6"/>
<rect width="32.6465" height="16.3233" transform="matrix(0.866025 -0.5 0 1 425.091 166.556)" stroke="#65B6D6"/>
<rect width="32.6465" height="32.6465" transform="matrix(0.866025 0.5 -0.866025 0.5 425.091 182.879)" stroke="#65B6D6"/>
<rect width="32.6465" height="16.3233" transform="matrix(0.866025 0.5 0 1 396.818 199.202)" stroke="#65B6D6"/>
<rect width="32.6465" height="16.3233" transform="matrix(0.866025 -0.5 0 1 425.091 215.525)" stroke="#65B6D6"/>
<rect width="32.6465" height="32.6465" transform="matrix(0.866025 0.5 -0.866025 0.5 425.091 231.852)" stroke="#65B6D6"/>
<rect width="32.6465" height="16.3233" transform="matrix(0.866025 0.5 0 1 396.818 248.175)" stroke="#65B6D6"/>
<rect width="32.6465" height="16.3233" transform="matrix(0.866025 -0.5 0 1 425.091 264.499)" stroke="#65B6D6"/>
<rect width="32.6465" height="32.6465" transform="matrix(0.866025 0.5 -0.866025 0.5 425.091 280.823)" stroke="#65B6D6"/>
<rect width="32.6465" height="16.3233" transform="matrix(0.866025 0.5 0 1 396.818 297.146)" stroke="#65B6D6"/>
<rect width="32.6465" height="16.3233" transform="matrix(0.866025 -0.5 0 1 425.091 313.469)" stroke="#65B6D6"/>
<rect width="32.6465" height="32.6465" transform="matrix(0.866025 0.5 -0.866025 0.5 481.636 -13)" stroke="#65B6D6"/>
<rect width="32.6465" height="16.3233" transform="matrix(0.866025 0.5 0 1 453.364 3.32324)" stroke="#65B6D6"/>
<rect width="32.6465" height="16.3233" transform="matrix(0.866025 -0.5 0 1 481.636 19.6465)" stroke="#65B6D6"/>
<rect width="32.6465" height="32.6465" transform="matrix(0.866025 0.5 -0.866025 0.5 481.637 35.9697)" stroke="#65B6D6"/>
<rect width="32.6465" height="16.3233" transform="matrix(0.866025 0.5 0 1 453.364 52.2935)" stroke="#65B6D6"/>
<rect width="32.6465" height="16.3233" transform="matrix(0.866025 -0.5 0 1 481.637 68.6167)" stroke="#65B6D6"/>
<rect width="32.6465" height="32.6465" transform="matrix(0.866025 0.5 -0.866025 0.5 481.636 84.9404)" stroke="#65B6D6"/>
<rect width="32.6465" height="16.3233" transform="matrix(0.866025 0.5 0 1 453.364 101.264)" stroke="#65B6D6"/>
<rect width="32.6465" height="16.3233" transform="matrix(0.866025 -0.5 0 1 481.637 117.586)" stroke="#65B6D6"/>
<rect width="32.6465" height="32.6465" transform="matrix(0.866025 0.5 -0.866025 0.5 481.636 133.909)" stroke="#65B6D6"/>
<rect width="32.6465" height="16.3233" transform="matrix(0.866025 0.5 0 1 453.364 150.232)" stroke="#65B6D6"/>
<rect width="32.6465" height="16.3233" transform="matrix(0.866025 -0.5 0 1 481.636 166.556)" stroke="#65B6D6"/>
<rect width="32.6465" height="32.6465" transform="matrix(0.866025 0.5 -0.866025 0.5 481.636 182.879)" stroke="#65B6D6"/>
<rect width="32.6465" height="16.3233" transform="matrix(0.866025 0.5 0 1 453.364 199.202)" stroke="#65B6D6"/>
<rect width="32.6465" height="16.3233" transform="matrix(0.866025 -0.5 0 1 481.636 215.525)" stroke="#65B6D6"/>
<rect width="32.6465" height="32.6465" transform="matrix(0.866025 0.5 -0.866025 0.5 481.637 231.852)" stroke="#65B6D6"/>
<rect width="32.6465" height="16.3233" transform="matrix(0.866025 0.5 0 1 453.364 248.175)" stroke="#65B6D6"/>
<rect width="32.6465" height="16.3233" transform="matrix(0.866025 -0.5 0 1 481.637 264.499)" stroke="#65B6D6"/>
<rect width="32.6465" height="32.6465" transform="matrix(0.866025 0.5 -0.866025 0.5 481.636 280.823)" stroke="#65B6D6"/>
<rect width="32.6465" height="16.3233" transform="matrix(0.866025 0.5 0 1 453.364 297.146)" stroke="#65B6D6"/>
<rect width="32.6465" height="16.3233" transform="matrix(0.866025 -0.5 0 1 481.636 313.469)" stroke="#65B6D6"/>
<rect width="32.6465" height="32.6465" transform="matrix(0.866025 0.5 -0.866025 0.5 538.182 -13)" stroke="#65B6D6"/>
<rect width="32.6465" height="16.3233" transform="matrix(0.866025 0.5 0 1 509.909 3.32324)" stroke="#65B6D6"/>
<rect width="32.6465" height="16.3233" transform="matrix(0.866025 -0.5 0 1 538.182 19.6465)" stroke="#65B6D6"/>
<rect width="32.6465" height="32.6465" transform="matrix(0.866025 0.5 -0.866025 0.5 538.182 35.9707)" stroke="#65B6D6"/>
<rect width="32.6465" height="16.3233" transform="matrix(0.866025 0.5 0 1 509.909 52.2935)" stroke="#65B6D6"/>
<rect width="32.6465" height="16.3233" transform="matrix(0.866025 -0.5 0 1 538.182 68.6167)" stroke="#65B6D6"/>
<rect width="32.6465" height="32.6465" transform="matrix(0.866025 0.5 -0.866025 0.5 538.182 84.9395)" stroke="#65B6D6"/>
<rect width="32.6465" height="16.3233" transform="matrix(0.866025 0.5 0 1 509.909 101.262)" stroke="#65B6D6"/>
<rect width="32.6465" height="16.3233" transform="matrix(0.866025 -0.5 0 1 538.182 117.585)" stroke="#65B6D6"/>
<rect width="32.6465" height="32.6465" transform="matrix(0.866025 0.5 -0.866025 0.5 538.182 133.909)" stroke="#65B6D6"/>
<rect width="32.6465" height="16.3233" transform="matrix(0.866025 0.5 0 1 509.909 150.233)" stroke="#65B6D6"/>
<rect width="32.6465" height="16.3233" transform="matrix(0.866025 -0.5 0 1 538.182 166.556)" stroke="#65B6D6"/>
<rect width="32.6465" height="32.6465" transform="matrix(0.866025 0.5 -0.866025 0.5 538.182 182.879)" stroke="#65B6D6"/>
<rect width="32.6465" height="16.3233" transform="matrix(0.866025 0.5 0 1 509.909 199.202)" stroke="#65B6D6"/>
<rect width="32.6465" height="16.3233" transform="matrix(0.866025 -0.5 0 1 538.182 215.526)" stroke="#65B6D6"/>
<rect width="32.6465" height="32.6465" transform="matrix(0.866025 0.5 -0.866025 0.5 538.182 231.852)" stroke="#65B6D6"/>
<rect width="32.6465" height="16.3233" transform="matrix(0.866025 0.5 0 1 509.909 248.175)" stroke="#65B6D6"/>
<rect width="32.6465" height="16.3233" transform="matrix(0.866025 -0.5 0 1 538.182 264.499)" stroke="#65B6D6"/>
<rect width="32.6465" height="32.6465" transform="matrix(0.866025 0.5 -0.866025 0.5 538.182 280.823)" stroke="#65B6D6"/>
<rect width="32.6465" height="16.3233" transform="matrix(0.866025 0.5 0 1 509.909 297.146)" stroke="#65B6D6"/>
<rect width="32.6465" height="16.3233" transform="matrix(0.866025 -0.5 0 1 538.182 313.469)" stroke="#65B6D6"/>
<rect width="32.6465" height="32.6465" transform="matrix(0.866025 0.5 -0.866025 0.5 594.727 -13)" stroke="#65B6D6"/>
<rect width="32.6465" height="16.3233" transform="matrix(0.866025 0.5 0 1 566.455 3.32324)" stroke="#65B6D6"/>
<rect width="32.6465" height="16.3233" transform="matrix(0.866025 -0.5 0 1 594.727 19.6465)" stroke="#65B6D6"/>
<rect width="32.6465" height="32.6465" transform="matrix(0.866025 0.5 -0.866025 0.5 594.727 35.9697)" stroke="#65B6D6"/>
<rect width="32.6465" height="16.3233" transform="matrix(0.866025 0.5 0 1 566.455 52.293)" stroke="#65B6D6"/>
<rect width="32.6465" height="16.3233" transform="matrix(0.866025 -0.5 0 1 594.727 68.6167)" stroke="#65B6D6"/>
<rect width="32.6465" height="32.6465" transform="matrix(0.866025 0.5 -0.866025 0.5 594.727 84.9395)" stroke="#65B6D6"/>
<rect width="32.6465" height="16.3233" transform="matrix(0.866025 0.5 0 1 566.455 101.263)" stroke="#65B6D6"/>
<rect width="32.6465" height="16.3233" transform="matrix(0.866025 -0.5 0 1 594.727 117.586)" stroke="#65B6D6"/>
<rect width="32.6465" height="32.6465" transform="matrix(0.866025 0.5 -0.866025 0.5 594.727 133.909)" stroke="#65B6D6"/>
<rect width="32.6465" height="16.3233" transform="matrix(0.866025 0.5 0 1 566.455 150.232)" stroke="#65B6D6"/>
<rect width="32.6465" height="16.3233" transform="matrix(0.866025 -0.5 0 1 594.727 166.556)" stroke="#65B6D6"/>
<rect width="32.6465" height="32.6465" transform="matrix(0.866025 0.5 -0.866025 0.5 594.727 182.879)" stroke="#65B6D6"/>
<rect width="32.6465" height="16.3233" transform="matrix(0.866025 0.5 0 1 566.455 199.202)" stroke="#65B6D6"/>
<rect width="32.6465" height="16.3233" transform="matrix(0.866025 -0.5 0 1 594.727 215.525)" stroke="#65B6D6"/>
<rect width="32.6465" height="32.6465" transform="matrix(0.866025 0.5 -0.866025 0.5 594.727 231.852)" stroke="#65B6D6"/>
<rect width="32.6465" height="16.3233" transform="matrix(0.866025 0.5 0 1 566.455 248.175)" stroke="#65B6D6"/>
<rect width="32.6465" height="16.3233" transform="matrix(0.866025 -0.5 0 1 594.727 264.499)" stroke="#65B6D6"/>
<rect width="32.6465" height="32.6465" transform="matrix(0.866025 0.5 -0.866025 0.5 594.727 280.823)" stroke="#65B6D6"/>
<rect width="32.6465" height="16.3233" transform="matrix(0.866025 0.5 0 1 566.455 297.146)" stroke="#65B6D6"/>
<rect width="32.6465" height="16.3233" transform="matrix(0.866025 -0.5 0 1 594.727 313.469)" stroke="#65B6D6"/>
<rect width="32.6465" height="32.6465" transform="matrix(0.866025 0.5 -0.866025 0.5 651.273 -13)" stroke="#65B6D6"/>
<rect width="32.6465" height="16.3233" transform="matrix(0.866025 0.5 0 1 623 3.32324)" stroke="#65B6D6"/>
<rect width="32.6465" height="16.3233" transform="matrix(0.866025 -0.5 0 1 651.273 19.6465)" stroke="#65B6D6"/>
<rect width="32.6465" height="32.6465" transform="matrix(0.866025 0.5 -0.866025 0.5 651.273 35.9697)" stroke="#65B6D6"/>
<rect width="32.6465" height="16.3233" transform="matrix(0.866025 0.5 0 1 623 52.293)" stroke="#65B6D6"/>
<rect width="32.6465" height="16.3233" transform="matrix(0.866025 -0.5 0 1 651.273 68.6167)" stroke="#65B6D6"/>
<rect width="32.6465" height="32.6465" transform="matrix(0.866025 0.5 -0.866025 0.5 651.273 84.9395)" stroke="#65B6D6"/>
<rect width="32.6465" height="16.3233" transform="matrix(0.866025 0.5 0 1 623 101.262)" stroke="#65B6D6"/>
<rect width="32.6465" height="16.3233" transform="matrix(0.866025 -0.5 0 1 651.273 117.586)" stroke="#65B6D6"/>
<rect width="32.6465" height="32.6465" transform="matrix(0.866025 0.5 -0.866025 0.5 651.273 133.909)" stroke="#65B6D6"/>
<rect width="32.6465" height="16.3233" transform="matrix(0.866025 0.5 0 1 623 150.232)" stroke="#65B6D6"/>
<rect width="32.6465" height="16.3233" transform="matrix(0.866025 -0.5 0 1 651.273 166.556)" stroke="#65B6D6"/>
<rect width="32.6465" height="32.6465" transform="matrix(0.866025 0.5 -0.866025 0.5 651.273 182.879)" stroke="#65B6D6"/>
<rect width="32.6465" height="16.3233" transform="matrix(0.866025 0.5 0 1 623 199.202)" stroke="#65B6D6"/>
<rect width="32.6465" height="16.3233" transform="matrix(0.866025 -0.5 0 1 651.273 215.525)" stroke="#65B6D6"/>
<rect width="32.6465" height="32.6465" transform="matrix(0.866025 0.5 -0.866025 0.5 651.273 231.852)" stroke="#65B6D6"/>
<rect width="32.6465" height="16.3233" transform="matrix(0.866025 0.5 0 1 623 248.175)" stroke="#65B6D6"/>
<rect width="32.6465" height="16.3233" transform="matrix(0.866025 -0.5 0 1 651.273 264.499)" stroke="#65B6D6"/>
<rect width="32.6465" height="32.6465" transform="matrix(0.866025 0.5 -0.866025 0.5 651.273 280.822)" stroke="#65B6D6"/>
<rect width="32.6465" height="16.3233" transform="matrix(0.866025 0.5 0 1 623 297.145)" stroke="#65B6D6"/>
<rect width="32.6465" height="16.3233" transform="matrix(0.866025 -0.5 0 1 651.273 313.468)" stroke="#65B6D6"/>
<rect width="32.6465" height="32.6465" transform="matrix(0.866025 0.5 -0.866025 0.5 707.818 -13)" stroke="#65B6D6"/>
<rect width="32.6465" height="16.3233" transform="matrix(0.866025 0.5 0 1 679.545 3.32324)" stroke="#65B6D6"/>
<rect width="32.6465" height="16.3233" transform="matrix(0.866025 -0.5 0 1 707.818 19.6465)" stroke="#65B6D6"/>
<rect width="32.6465" height="32.6465" transform="matrix(0.866025 0.5 -0.866025 0.5 707.818 35.9697)" stroke="#65B6D6"/>
<rect width="32.6465" height="16.3233" transform="matrix(0.866025 0.5 0 1 679.546 52.293)" stroke="#65B6D6"/>
<rect width="32.6465" height="16.3233" transform="matrix(0.866025 -0.5 0 1 707.818 68.6162)" stroke="#65B6D6"/>
<rect width="32.6465" height="32.6465" transform="matrix(0.866025 0.5 -0.866025 0.5 707.818 84.9404)" stroke="#65B6D6"/>
<rect width="32.6465" height="16.3233" transform="matrix(0.866025 0.5 0 1 679.546 101.264)" stroke="#65B6D6"/>
<rect width="32.6465" height="16.3233" transform="matrix(0.866025 -0.5 0 1 707.818 117.586)" stroke="#65B6D6"/>
<rect width="32.6465" height="32.6465" transform="matrix(0.866025 0.5 -0.866025 0.5 707.818 133.909)" stroke="#65B6D6"/>
<rect width="32.6465" height="16.3233" transform="matrix(0.866025 0.5 0 1 679.546 150.232)" stroke="#65B6D6"/>
<rect width="32.6465" height="16.3233" transform="matrix(0.866025 -0.5 0 1 707.818 166.556)" stroke="#65B6D6"/>
<rect width="32.6465" height="32.6465" transform="matrix(0.866025 0.5 -0.866025 0.5 707.818 182.879)" stroke="#65B6D6"/>
<rect width="32.6465" height="16.3233" transform="matrix(0.866025 0.5 0 1 679.546 199.203)" stroke="#65B6D6"/>
<rect width="32.6465" height="16.3233" transform="matrix(0.866025 -0.5 0 1 707.818 215.526)" stroke="#65B6D6"/>
<rect width="32.6465" height="32.6465" transform="matrix(0.866025 0.5 -0.866025 0.5 707.818 231.852)" stroke="#65B6D6"/>
<rect width="32.6465" height="16.3233" transform="matrix(0.866025 0.5 0 1 679.546 248.175)" stroke="#65B6D6"/>
<rect width="32.6465" height="16.3233" transform="matrix(0.866025 -0.5 0 1 707.818 264.499)" stroke="#65B6D6"/>
<rect width="32.6465" height="32.6465" transform="matrix(0.866025 0.5 -0.866025 0.5 707.818 280.823)" stroke="#65B6D6"/>
<rect width="32.6465" height="16.3233" transform="matrix(0.866025 0.5 0 1 679.546 297.146)" stroke="#65B6D6"/>
<rect width="32.6465" height="16.3233" transform="matrix(0.866025 -0.5 0 1 707.818 313.469)" stroke="#65B6D6"/>
<rect width="32.6465" height="32.6465" transform="matrix(0.866025 0.5 -0.866025 0.5 764.364 -13)" stroke="#65B6D6"/>
<rect width="32.6465" height="16.3233" transform="matrix(0.866025 0.5 0 1 736.091 3.32324)" stroke="#65B6D6"/>
<rect width="32.6465" height="32.6465" transform="matrix(0.866025 0.5 -0.866025 0.5 764.364 35.9707)" stroke="#65B6D6"/>
<rect width="32.6465" height="16.3233" transform="matrix(0.866025 0.5 0 1 736.091 52.2935)" stroke="#65B6D6"/>
<rect width="32.6465" height="32.6465" transform="matrix(0.866025 0.5 -0.866025 0.5 764.364 84.9395)" stroke="#65B6D6"/>
<rect width="32.6465" height="16.3233" transform="matrix(0.866025 0.5 0 1 736.091 101.263)" stroke="#65B6D6"/>
<rect width="32.6465" height="32.6465" transform="matrix(0.866025 0.5 -0.866025 0.5 764.364 133.909)" stroke="#65B6D6"/>
<rect width="32.6465" height="16.3233" transform="matrix(0.866025 0.5 0 1 736.091 150.232)" stroke="#65B6D6"/>
<rect width="32.6465" height="32.6465" transform="matrix(0.866025 0.5 -0.866025 0.5 764.364 182.879)" stroke="#65B6D6"/>
<rect width="32.6465" height="16.3233" transform="matrix(0.866025 0.5 0 1 736.091 199.202)" stroke="#65B6D6"/>
<rect width="32.6465" height="32.6465" transform="matrix(0.866025 0.5 -0.866025 0.5 764.364 231.852)" stroke="#65B6D6"/>
<rect width="32.6465" height="16.3233" transform="matrix(0.866025 0.5 0 1 736.091 248.175)" stroke="#65B6D6"/>
<rect width="32.6465" height="32.6465" transform="matrix(0.866025 0.5 -0.866025 0.5 764.364 280.823)" stroke="#65B6D6"/>
<rect width="32.6465" height="16.3233" transform="matrix(0.866025 0.5 0 1 736.091 297.146)" stroke="#65B6D6"/>
</g>
<defs>
<clipPath id="clip0_37_6368">
<rect width="740" height="331" fill="white"/>
</clipPath>
</defs>
</svg>
