<svg width="282" height="233" viewBox="0 0 282 233" fill="none" xmlns="http://www.w3.org/2000/svg">
<g clip-path="url(#clip0_18_579)">
<g filter="url(#filter0_f_18_579)">
<rect width="30.847" height="30.847" transform="matrix(0.866025 0.5 -0.866025 0.5 144.714 -22.1047)" stroke="#65B6D6"/>
<rect width="30.847" height="15.4235" transform="matrix(0.866025 0.5 0 1 118 -6.68097)" stroke="#65B6D6"/>
<rect width="30.847" height="15.4235" transform="matrix(0.866025 -0.5 0 1 144.714 8.74225)" stroke="#65B6D6"/>
<rect width="30.847" height="30.847" transform="matrix(0.866025 0.5 -0.866025 0.5 144.714 24.1661)" stroke="#65B6D6"/>
<rect width="30.847" height="15.4235" transform="matrix(0.866025 0.5 0 1 118 39.5894)" stroke="#65B6D6"/>
<rect width="30.847" height="15.4235" transform="matrix(0.866025 -0.5 0 1 144.714 55.0126)" stroke="#65B6D6"/>
<rect width="30.847" height="30.847" transform="matrix(0.866025 0.5 -0.866025 0.5 144.714 70.4362)" stroke="#65B6D6"/>
<rect width="30.847" height="15.4235" transform="matrix(0.866025 0.5 0 1 118 85.8594)" stroke="#65B6D6"/>
<rect width="30.847" height="15.4235" transform="matrix(0.866025 -0.5 0 1 144.714 101.283)" stroke="#65B6D6"/>
<rect width="30.847" height="30.847" transform="matrix(0.866025 0.5 -0.866025 0.5 198.143 -22.1047)" stroke="#65B6D6"/>
<rect width="30.847" height="15.4235" transform="matrix(0.866025 0.5 0 1 171.429 -6.68097)" stroke="#65B6D6"/>
<rect width="30.847" height="15.4235" transform="matrix(0.866025 -0.5 0 1 198.143 8.74225)" stroke="#65B6D6"/>
<rect width="30.847" height="30.847" transform="matrix(0.866025 0.5 -0.866025 0.5 198.143 24.166)" stroke="#65B6D6"/>
<rect width="30.847" height="15.4235" transform="matrix(0.866025 0.5 0 1 171.429 39.5892)" stroke="#65B6D6"/>
<rect width="30.847" height="15.4235" transform="matrix(0.866025 -0.5 0 1 198.143 55.0129)" stroke="#65B6D6"/>
<rect width="30.847" height="30.847" transform="matrix(0.866025 0.5 -0.866025 0.5 198.143 70.4365)" stroke="#65B6D6"/>
<rect width="30.847" height="15.4235" transform="matrix(0.866025 0.5 0 1 171.429 85.8597)" stroke="#65B6D6"/>
<rect width="30.847" height="15.4235" transform="matrix(0.866025 -0.5 0 1 198.143 101.283)" stroke="#65B6D6"/>
<rect width="30.847" height="30.847" transform="matrix(0.866025 0.5 -0.866025 0.5 251.571 -22.1047)" stroke="#65B6D6"/>
<rect width="30.847" height="15.4235" transform="matrix(0.866025 0.5 0 1 224.857 -6.68097)" stroke="#65B6D6"/>
<rect width="30.847" height="15.4235" transform="matrix(0.866025 -0.5 0 1 251.571 8.74225)" stroke="#65B6D6"/>
<rect width="30.847" height="30.847" transform="matrix(0.866025 0.5 -0.866025 0.5 251.571 24.166)" stroke="#65B6D6"/>
<rect width="30.847" height="15.4235" transform="matrix(0.866025 0.5 0 1 224.857 39.5892)" stroke="#65B6D6"/>
<rect width="30.847" height="15.4235" transform="matrix(0.866025 -0.5 0 1 251.571 55.0129)" stroke="#65B6D6"/>
<rect width="30.847" height="30.847" transform="matrix(0.866025 0.5 -0.866025 0.5 251.571 70.4365)" stroke="#65B6D6"/>
<rect width="30.847" height="15.4235" transform="matrix(0.866025 0.5 0 1 224.857 85.8597)" stroke="#65B6D6"/>
<rect width="30.847" height="15.4235" transform="matrix(0.866025 -0.5 0 1 251.571 101.283)" stroke="#65B6D6"/>
<rect width="30.847" height="30.847" transform="matrix(0.866025 0.5 -0.866025 0.5 305 -22.1047)" stroke="#65B6D6"/>
<rect width="30.847" height="15.4235" transform="matrix(0.866025 0.5 0 1 278.286 -6.68097)" stroke="#65B6D6"/>
<rect width="30.847" height="30.847" transform="matrix(0.866025 0.5 -0.866025 0.5 305 24.1661)" stroke="#65B6D6"/>
<rect width="30.847" height="15.4235" transform="matrix(0.866025 0.5 0 1 278.286 39.5894)" stroke="#65B6D6"/>
<rect width="30.847" height="30.847" transform="matrix(0.866025 0.5 -0.866025 0.5 305 70.4365)" stroke="#65B6D6"/>
<rect width="30.847" height="15.4235" transform="matrix(0.866025 0.5 0 1 278.286 85.8597)" stroke="#65B6D6"/>
</g>
</g>
<defs>
<filter id="filter0_f_18_579" x="115.134" y="-348.5" width="379.732" height="467.957" filterUnits="userSpaceOnUse" color-interpolation-filters="sRGB">
<feFlood flood-opacity="0" result="BackgroundImageFix"/>
<feBlend mode="normal" in="SourceGraphic" in2="BackgroundImageFix" result="shape"/>
<feGaussianBlur stdDeviation="1" result="effect1_foregroundBlur_18_579"/>
</filter>
<clipPath id="clip0_18_579">
<rect width="282" height="233" fill="white"/>
</clipPath>
</defs>
</svg>
