<svg width="740" height="93" viewBox="0 0 740 93" fill="none" xmlns="http://www.w3.org/2000/svg">
<g clip-path="url(#clip0_4_740)">
<rect width="30.7333" height="30.7333" transform="matrix(0.866025 0.5 -0.866025 0.5 23.6161 1)" stroke="#65B6D6"/>
<rect width="30.7333" height="15.3667" transform="matrix(0.866025 0.5 0 1 -2.99976 16.3662)" stroke="#65B6D6"/>
<rect width="30.7333" height="15.3667" transform="matrix(0.866025 -0.5 0 1 23.6161 31.7332)" stroke="#65B6D6"/>
<rect width="30.7333" height="30.7333" transform="matrix(0.866025 0.5 -0.866025 0.5 23.6161 47.0999)" stroke="#65B6D6"/>
<rect width="30.7333" height="15.3667" transform="matrix(0.866025 0.5 0 1 -2.99939 62.4669)" stroke="#65B6D6"/>
<rect width="30.7333" height="15.3667" transform="matrix(0.866025 -0.5 0 1 23.6163 77.833)" stroke="#65B6D6"/>
<rect width="30.7333" height="30.7333" transform="matrix(0.866025 0.5 -0.866025 0.5 23.6161 93.1998)" stroke="#65B6D6"/>
<rect width="30.7333" height="30.7333" transform="matrix(0.866025 0.5 -0.866025 0.5 76.8478 1)" stroke="#65B6D6"/>
<rect width="30.7333" height="15.3667" transform="matrix(0.866025 0.5 0 1 50.2319 16.3662)" stroke="#65B6D6"/>
<rect width="30.7333" height="15.3667" transform="matrix(0.866025 -0.5 0 1 76.8478 31.7332)" stroke="#65B6D6"/>
<rect width="30.7333" height="30.7333" transform="matrix(0.866025 0.5 -0.866025 0.5 76.8477 47.0999)" stroke="#65B6D6"/>
<rect width="30.7333" height="15.3667" transform="matrix(0.866025 0.5 0 1 50.2321 62.4669)" stroke="#65B6D6"/>
<rect width="30.7333" height="15.3667" transform="matrix(0.866025 -0.5 0 1 76.8477 77.833)" stroke="#65B6D6"/>
<rect width="30.7333" height="30.7333" transform="matrix(0.866025 0.5 -0.866025 0.5 76.8478 93.1998)" stroke="#65B6D6"/>
<rect width="30.7333" height="30.7333" transform="matrix(0.866025 0.5 -0.866025 0.5 130.079 1)" stroke="#65B6D6"/>
<rect width="30.7333" height="15.3667" transform="matrix(0.866025 0.5 0 1 103.463 16.3662)" stroke="#65B6D6"/>
<rect width="30.7333" height="15.3667" transform="matrix(0.866025 -0.5 0 1 130.079 31.7332)" stroke="#65B6D6"/>
<rect width="30.7333" height="30.7333" transform="matrix(0.866025 0.5 -0.866025 0.5 130.079 47.0999)" stroke="#65B6D6"/>
<rect width="30.7333" height="15.3667" transform="matrix(0.866025 0.5 0 1 103.463 62.4669)" stroke="#65B6D6"/>
<rect width="30.7333" height="15.3667" transform="matrix(0.866025 -0.5 0 1 130.079 77.833)" stroke="#65B6D6"/>
<rect width="30.7333" height="30.7333" transform="matrix(0.866025 0.5 -0.866025 0.5 130.079 93.1998)" stroke="#65B6D6"/>
<rect width="30.7333" height="30.7333" transform="matrix(0.866025 0.5 -0.866025 0.5 183.311 1)" stroke="#65B6D6"/>
<rect width="30.7333" height="15.3667" transform="matrix(0.866025 0.5 0 1 156.695 16.3662)" stroke="#65B6D6"/>
<rect width="30.7333" height="15.3667" transform="matrix(0.866025 -0.5 0 1 183.311 31.7332)" stroke="#65B6D6"/>
<rect width="30.7333" height="30.7333" transform="matrix(0.866025 0.5 -0.866025 0.5 183.311 47.0999)" stroke="#65B6D6"/>
<rect width="30.7333" height="15.3667" transform="matrix(0.866025 0.5 0 1 156.695 62.4669)" stroke="#65B6D6"/>
<rect width="30.7333" height="15.3667" transform="matrix(0.866025 -0.5 0 1 183.311 77.833)" stroke="#65B6D6"/>
<rect width="30.7333" height="30.7333" transform="matrix(0.866025 0.5 -0.866025 0.5 183.311 93.1998)" stroke="#65B6D6"/>
<rect width="30.7333" height="30.7333" transform="matrix(0.866025 0.5 -0.866025 0.5 236.543 1)" stroke="#65B6D6"/>
<rect width="30.7333" height="15.3667" transform="matrix(0.866025 0.5 0 1 209.927 16.3662)" stroke="#65B6D6"/>
<rect width="30.7333" height="15.3667" transform="matrix(0.866025 -0.5 0 1 236.543 31.7332)" stroke="#65B6D6"/>
<rect width="30.7333" height="30.7333" transform="matrix(0.866025 0.5 -0.866025 0.5 236.543 47.0999)" stroke="#65B6D6"/>
<rect width="30.7333" height="15.3667" transform="matrix(0.866025 0.5 0 1 209.927 62.4669)" stroke="#65B6D6"/>
<rect width="30.7333" height="15.3667" transform="matrix(0.866025 -0.5 0 1 236.543 77.833)" stroke="#65B6D6"/>
<rect width="30.7333" height="30.7333" transform="matrix(0.866025 0.5 -0.866025 0.5 236.543 93.1998)" stroke="#65B6D6"/>
<rect width="30.7333" height="30.7333" transform="matrix(0.866025 0.5 -0.866025 0.5 289.774 47.0999)" stroke="#65B6D6"/>
<rect width="30.7333" height="15.3667" transform="matrix(0.866025 0.5 0 1 263.159 62.4669)" stroke="#65B6D6"/>
<rect width="30.7333" height="15.3667" transform="matrix(0.866025 -0.5 0 1 289.774 77.833)" stroke="#65B6D6"/>
<rect width="30.7333" height="30.7333" transform="matrix(0.866025 0.5 -0.866025 0.5 289.774 93.1998)" stroke="#65B6D6"/>
<rect width="30.7333" height="30.7333" transform="matrix(0.866025 0.5 -0.866025 0.5 289.774 1)" stroke="#65B6D6"/>
<rect width="30.7333" height="15.3667" transform="matrix(0.866025 0.5 0 1 263.159 16.3662)" stroke="#65B6D6"/>
<rect width="30.7333" height="15.3667" transform="matrix(0.866025 -0.5 0 1 289.775 31.7332)" stroke="#65B6D6"/>
<rect width="30.7333" height="30.7333" transform="matrix(0.866025 0.5 -0.866025 0.5 343.006 1)" stroke="#65B6D6"/>
<rect width="30.7333" height="15.3667" transform="matrix(0.866025 0.5 0 1 316.39 16.3662)" stroke="#65B6D6"/>
<rect width="30.7333" height="15.3667" transform="matrix(0.866025 -0.5 0 1 343.006 31.7332)" stroke="#65B6D6"/>
<rect width="30.7333" height="30.7333" transform="matrix(0.866025 0.5 -0.866025 0.5 343.006 47.0996)" stroke="#65B6D6"/>
<rect width="30.7333" height="15.3667" transform="matrix(0.866025 0.5 0 1 316.39 62.4658)" stroke="#65B6D6"/>
<rect width="30.7333" height="15.3667" transform="matrix(0.866025 -0.5 0 1 343.006 77.8328)" stroke="#65B6D6"/>
<rect width="30.7333" height="30.7333" transform="matrix(0.866025 0.5 -0.866025 0.5 343.006 93.1998)" stroke="#65B6D6"/>
<rect width="30.7333" height="30.7333" transform="matrix(0.866025 0.5 -0.866025 0.5 396.116 1)" stroke="#65B6D6"/>
<rect width="30.7333" height="15.3667" transform="matrix(0.866025 0.5 0 1 369.5 16.3662)" stroke="#65B6D6"/>
<rect width="30.7333" height="15.3667" transform="matrix(0.866025 -0.5 0 1 396.116 31.7332)" stroke="#65B6D6"/>
<rect width="30.7333" height="30.7333" transform="matrix(0.866025 0.5 -0.866025 0.5 396.116 47.0999)" stroke="#65B6D6"/>
<rect width="30.7333" height="15.3667" transform="matrix(0.866025 0.5 0 1 369.5 62.4669)" stroke="#65B6D6"/>
<rect width="30.7333" height="15.3667" transform="matrix(0.866025 -0.5 0 1 396.116 77.833)" stroke="#65B6D6"/>
<rect width="30.7333" height="30.7333" transform="matrix(0.866025 0.5 -0.866025 0.5 396.116 93.1998)" stroke="#65B6D6"/>
<rect width="30.7333" height="30.7333" transform="matrix(0.866025 0.5 -0.866025 0.5 449.348 1)" stroke="#65B6D6"/>
<rect width="30.7333" height="15.3667" transform="matrix(0.866025 0.5 0 1 422.732 16.3662)" stroke="#65B6D6"/>
<rect width="30.7333" height="15.3667" transform="matrix(0.866025 -0.5 0 1 449.348 31.7332)" stroke="#65B6D6"/>
<rect width="30.7333" height="30.7333" transform="matrix(0.866025 0.5 -0.866025 0.5 449.348 47.0999)" stroke="#65B6D6"/>
<rect width="30.7333" height="15.3667" transform="matrix(0.866025 0.5 0 1 422.732 62.4669)" stroke="#65B6D6"/>
<rect width="30.7333" height="15.3667" transform="matrix(0.866025 -0.5 0 1 449.348 77.833)" stroke="#65B6D6"/>
<rect width="30.7333" height="30.7333" transform="matrix(0.866025 0.5 -0.866025 0.5 449.348 93.1998)" stroke="#65B6D6"/>
<rect width="30.7333" height="30.7333" transform="matrix(0.866025 0.5 -0.866025 0.5 502.579 1)" stroke="#65B6D6"/>
<rect width="30.7333" height="15.3667" transform="matrix(0.866025 0.5 0 1 475.964 16.3662)" stroke="#65B6D6"/>
<rect width="30.7333" height="15.3667" transform="matrix(0.866025 -0.5 0 1 502.579 31.7332)" stroke="#65B6D6"/>
<rect width="30.7333" height="30.7333" transform="matrix(0.866025 0.5 -0.866025 0.5 502.579 47.0999)" stroke="#65B6D6"/>
<rect width="30.7333" height="15.3667" transform="matrix(0.866025 0.5 0 1 475.963 62.4669)" stroke="#65B6D6"/>
<rect width="30.7333" height="15.3667" transform="matrix(0.866025 -0.5 0 1 502.579 77.833)" stroke="#65B6D6"/>
<rect width="30.7333" height="30.7333" transform="matrix(0.866025 0.5 -0.866025 0.5 502.579 93.1998)" stroke="#65B6D6"/>
<rect width="30.7333" height="30.7333" transform="matrix(0.866025 0.5 -0.866025 0.5 555.811 1)" stroke="#65B6D6"/>
<rect width="30.7333" height="15.3667" transform="matrix(0.866025 0.5 0 1 529.195 16.3662)" stroke="#65B6D6"/>
<rect width="30.7333" height="15.3667" transform="matrix(0.866025 -0.5 0 1 555.811 31.7332)" stroke="#65B6D6"/>
<rect width="30.7333" height="30.7333" transform="matrix(0.866025 0.5 -0.866025 0.5 555.811 47.0999)" stroke="#65B6D6"/>
<rect width="30.7333" height="15.3667" transform="matrix(0.866025 0.5 0 1 529.195 62.4669)" stroke="#65B6D6"/>
<rect width="30.7333" height="15.3667" transform="matrix(0.866025 -0.5 0 1 555.811 77.833)" stroke="#65B6D6"/>
<rect width="30.7333" height="30.7333" transform="matrix(0.866025 0.5 -0.866025 0.5 555.811 93.1998)" stroke="#65B6D6"/>
<rect width="30.7333" height="30.7333" transform="matrix(0.866025 0.5 -0.866025 0.5 609.043 1)" stroke="#65B6D6"/>
<rect width="30.7333" height="15.3667" transform="matrix(0.866025 0.5 0 1 582.427 16.3662)" stroke="#65B6D6"/>
<rect width="30.7333" height="15.3667" transform="matrix(0.866025 -0.5 0 1 609.043 31.7332)" stroke="#65B6D6"/>
<rect width="30.7333" height="30.7333" transform="matrix(0.866025 0.5 -0.866025 0.5 609.043 47.0999)" stroke="#65B6D6"/>
<rect width="30.7333" height="15.3667" transform="matrix(0.866025 0.5 0 1 582.427 62.4669)" stroke="#65B6D6"/>
<rect width="30.7333" height="15.3667" transform="matrix(0.866025 -0.5 0 1 609.043 77.833)" stroke="#65B6D6"/>
<rect width="30.7333" height="30.7333" transform="matrix(0.866025 0.5 -0.866025 0.5 609.043 93.1998)" stroke="#65B6D6"/>
<rect width="30.7333" height="30.7333" transform="matrix(0.866025 0.5 -0.866025 0.5 662.274 47.0999)" stroke="#65B6D6"/>
<rect width="30.7333" height="15.3667" transform="matrix(0.866025 0.5 0 1 635.659 62.4669)" stroke="#65B6D6"/>
<rect width="30.7333" height="15.3667" transform="matrix(0.866025 -0.5 0 1 662.274 77.833)" stroke="#65B6D6"/>
<rect width="30.7333" height="30.7333" transform="matrix(0.866025 0.5 -0.866025 0.5 662.274 93.1998)" stroke="#65B6D6"/>
<rect width="30.7333" height="30.7333" transform="matrix(0.866025 0.5 -0.866025 0.5 662.274 1)" stroke="#65B6D6"/>
<rect width="30.7333" height="15.3667" transform="matrix(0.866025 0.5 0 1 635.659 16.3662)" stroke="#65B6D6"/>
<rect width="30.7333" height="15.3667" transform="matrix(0.866025 -0.5 0 1 662.275 31.7332)" stroke="#65B6D6"/>
<rect width="30.7333" height="30.7333" transform="matrix(0.866025 0.5 -0.866025 0.5 715.506 1)" stroke="#65B6D6"/>
<rect width="30.7333" height="15.3667" transform="matrix(0.866025 0.5 0 1 688.89 16.3662)" stroke="#65B6D6"/>
<rect width="30.7333" height="15.3667" transform="matrix(0.866025 -0.5 0 1 715.506 31.7332)" stroke="#65B6D6"/>
<rect width="30.7333" height="30.7333" transform="matrix(0.866025 0.5 -0.866025 0.5 715.506 47.0996)" stroke="#65B6D6"/>
<rect width="30.7333" height="15.3667" transform="matrix(0.866025 0.5 0 1 688.89 62.4658)" stroke="#65B6D6"/>
<rect width="30.7333" height="15.3667" transform="matrix(0.866025 -0.5 0 1 715.506 77.8328)" stroke="#65B6D6"/>
<rect width="30.7333" height="30.7333" transform="matrix(0.866025 0.5 -0.866025 0.5 715.506 93.1998)" stroke="#65B6D6"/>
</g>
<defs>
<clipPath id="clip0_4_740">
<rect width="740" height="93" fill="white"/>
</clipPath>
</defs>
</svg>
